<?xml version="1.0" standalone="no"?>
<!DOCTYPE svg PUBLIC "-//W3C//DTD SVG 20010904//EN"
 "http://www.w3.org/TR/2001/REC-SVG-20010904/DTD/svg10.dtd">
<svg version="1.0" xmlns="http://www.w3.org/2000/svg"
 width="800.000000pt" height="800.000000pt" viewBox="0 0 800.000000 800.000000"
 preserveAspectRatio="xMidYMid meet">
<metadata>
Created by potrace 1.11, written by Peter Selinger 2001-2013
</metadata>
<g transform="translate(0.000000,800.000000) scale(0.100000,-0.100000)"
fill="#000000" stroke="none">
<path d="M3785 7784 c-336 -20 -643 -77 -955 -176 -1143 -364 -2050 -1259
-2437 -2403 -93 -275 -154 -571 -182 -875 -11 -122 -11 -537 0 -660 118 -1310
894 -2458 2064 -3052 412 -209 814 -327 1330 -390 135 -16 620 -16 760 1 498
59 865 164 1280 366 581 283 1077 707 1450 1240 588 841 807 1894 604 2910
-194 977 -770 1840 -1598 2396 -515 347 -1070 551 -1696 624 -127 15 -501 26
-620 19z m341 -2639 c164 -22 260 -52 395 -122 379 -198 619 -594 619 -1022 0
-503 -320 -944 -798 -1100 -542 -178 -1134 71 -1390 584 -42 85 -82 202 -104
300 -17 78 -17 352 0 430 50 229 149 421 301 579 192 200 414 313 686 351 124
17 164 17 291 0z m-1756 -1390 c0 -87 81 -343 154 -487 242 -476 680 -797
1206 -884 128 -21 395 -21 515 0 372 66 668 224 926 494 213 221 362 508 419
807 6 33 14 68 16 78 5 16 53 17 820 17 l814 0 0 -52 c-1 -161 -77 -530 -160
-778 -304 -903 -1018 -1649 -1910 -1995 -279 -108 -498 -162 -840 -206 -124
-17 -567 -17 -690 -1 -432 57 -742 148 -1095 322 -278 137 -487 277 -720 482
-456 400 -798 935 -972 1518 -60 202 -106 439 -119 618 l-7 92 822 0 821 0 0
-25z"/>
</g>
</svg>
